<?xml version="1.0" standalone="no"?><!DOCTYPE svg PUBLIC "-//W3C//DTD SVG 1.1//EN" "http://www.w3.org/Graphics/SVG/1.1/DTD/svg11.dtd"><svg t="1557739299050" class="icon" style="" viewBox="0 0 1024 1024" version="1.1" xmlns="http://www.w3.org/2000/svg" p-id="3294" xmlns:xlink="http://www.w3.org/1999/xlink" width="200" height="200"><defs><style type="text/css"></style></defs><path d="M593.066667 499.2C695.466667 465.066667 768 369.066667 768 256c0-140.8-115.2-256-256-256S256 115.2 256 256c0 113.066667 72.533333 209.066667 174.933333 243.2C249.6 535.466667 85.333333 689.066667 85.333333 874.666667c0 83.2 66.133333 149.333333 149.333334 149.333333h554.666666c83.2 0 149.333333-66.133333 149.333334-149.333333 0-185.6-164.266667-339.2-345.6-375.466667zM298.666667 256c0-117.333333 96-213.333333 213.333333-213.333333s213.333333 96 213.333333 213.333333-96 213.333333-213.333333 213.333333-213.333333-96-213.333333-213.333333z m490.666666 725.333333H234.666667c-59.733333 0-106.666667-46.933333-106.666667-106.666666 0-196.266667 202.666667-341.333333 384-341.333334s384 145.066667 384 341.333334c0 59.733333-46.933333 106.666667-106.666667 106.666666z" fill="#1d95d9" p-id="3295"></path></svg>